<?xml version="1.0"?><svg width="500" height="500" xmlns="http://www.w3.org/2000/svg">
 <title>white bucket</title>
 <defs>
  <linearGradient gradientTransform="translate(-125, 107) translate(3, -27) translate(1, -1)" y2="0.499" x2="1.21526" y1="0.499" x1="-0.083911" id="SVGID_1_">
   <stop stop-color="#FFFFFF" offset="0"/>
   <stop stop-color="#FFFFFF" offset="1"/>
  </linearGradient>
  <linearGradient gradientTransform="translate(-125, 107) translate(3, -27) translate(1, -1)" y2="0.500001" x2="1" y1="0.500001" x1="0" id="SVGID_2_">
   <stop stop-color="#FFFFFF" offset="0"/>
   <stop stop-color="#FFFFFF" offset="1"/>
  </linearGradient>
  <linearGradient gradientTransform="translate(-125, 107) translate(3, -27) translate(1, -1)" y2="Infinity" x2="NaN" y1="Infinity" x1="-Infinity" id="SVGID_3_">
   <stop stop-color="#FFFFFF" offset="0"/>
   <stop stop-color="#FFFFFF" offset="1"/>
  </linearGradient>
 </defs>
 <g>
  <title>Layer 1</title>
  <g display="none" id="Guide"/>
  <g id="Outline"/>
  <g id="svg_12">
   <path fill="black" d="m406,136.997009c0,-17.119019 -80.588989,-30.997009 -180,-30.997009s-180,13.877991 -180,30.997009c0,0.375 0.053009,0.746994 0.128998,1.118988c-0.078011,0.565994 -0.128998,1.146011 -0.128998,1.756012c0,16.10199 0,24.05098 0,31.023987c0,6.062012 10.114014,11.716003 27.580994,16.493011c3.351013,18.722992 20.419006,112.743011 20.419006,265.725983c0,17.058014 59.098999,30.88501 132,30.88501s132,-13.826996 132,-30.88501c0,0 2.072998,-204.185974 16.998993,-264.824005c19.563995,-4.959991 31.001007,-10.947998 31.001007,-17.395996c0,-6.985992 0,-13.459991 0,-30.145996c0,-0.786011 -0.087006,-1.52301 -0.21701,-2.237c0.141022,-0.501999 0.21701,-1.007004 0.21701,-1.514984z" id="Base_2_"/>
   <path d="m400.626007,137.104004c0,-16.251007 -77.364014,-29.427002 -172.795013,-29.427002c-95.43399,0 -172.796997,13.175003 -172.796997,29.427002c0,0.354996 0.051003,0.709 0.124001,1.061996c-0.074997,0.537994 -0.124001,1.087997 -0.124001,1.666992c0,15.286011 0,22.833008 0,29.452011c0,5.75499 9.710007,11.123001 26.478004,15.656998c3.075996,17 19.601997,116.632004 19.601997,262.673996c0,16.194 56.733002,29.320007 126.718002,29.320007c69.981995,0 126.716003,-13.126007 126.716003,-29.320007c0,0 1.98999,-204.251007 16.319,-261.817993c18.779999,-4.708008 29.76001,-10.393005 29.76001,-16.514008c0,-6.632004 0,-12.778 0,-28.617996c0,-0.746994 -0.084015,-1.445999 -0.207001,-2.125c0.132996,-0.475006 0.205994,-0.953995 0.205994,-1.436996l0,0l0,0z" fill="#ffffff" id="Color_3_"/>
   <g id="Highlights">
    <path id="svg_1" d="m170,157c0,0 28,2 46,0s11,12 1,12s-16,1 -15,7s1,9 -2,12s0,2 6,4s4,8 -10,7s-21,-7 -11,-8s12,-3 8,-7s-1,-5 1,-11s-3,-6 -13,-7s-21,-7 -11,-9z" fill="url(#SVGID_1_)"/>
    <path id="svg_2" d="m172,224c0,0 32.5,3.5 57,2c0,35 -6,182 -6,211c0,22 2,32 -10,33c-16.971008,1.414001 -18,-2 -24,-8s4,0 8,-29s-22,-109 -16,-149s4,-52 -9,-60z" fill="url(#SVGID_2_)"/>
    <path id="svg_3" d="m223,437c0,23 0,33 -10,33" fill="url(#SVGID_3_)"/>
   </g>
   <g id="Shadows">
    <path id="svg_4" d="m359.666992,285.333008c0,0 -3.5,81.332977 -3.666992,92.666992c-10.666016,12.666992 -26.666016,30.000977 -50.333008,43.333984c-16.666992,-4.666992 -22.334015,-10 -61.666992,-13.666992c18.334015,-14.332977 24,-18.666992 24,-18.666992s20.334015,3.666992 36.666992,15.666992c14.667023,-10.332977 44.667023,-50.666992 55,-119.333984z" fill="#ffffff"/>
   </g>
   <g id="Rim">
    <path id="svg_5" d="m55.5,175c0,0 154.5,61 336.501007,3.333008c1,2.5 1.5,3.5 1.5,3.5s-158.834015,66.834015 -338.001007,-2.833008c0.5,-3 0,-4 0,-4z"/>
   </g>
   <g id="Lid">
    <path id="svg_7" d="m71,136c0,13.061996 66,17 156,17s156,-3.748993 156,-18s-61,-15 -61,-15s24,17.333008 14,24c-25,7 -201.332977,4.666992 -230,-1c-3,-7 -9,-16 3,-21c-14,3.75 -38,3.061996 -38,14z"/>
   </g>
  </g>
  <text font-weight="bold" font-style="italic" transform="rotate(-15.5647, 222.343, 308.646) matrix(6.36087, 0, 0, 8.11307, -840.082, -1905.08)" xml:space="preserve" text-anchor="middle" font-family="Times New Roman" font-size="8" id="svg_14" y="275.463567" x="167.083207" stroke-width="0" stroke="#000000" fill="#000000">Bucket List</text>
 </g>
</svg>